<svg width="88" height="40" viewBox="0 0 88 40" fill="none" xmlns="http://www.w3.org/2000/svg">
<g clip-path="url(#clip0_1_83)">
<path fill-rule="evenodd" clip-rule="evenodd" d="M23.7073 13.2929C24.0978 13.6834 24.0978 14.3166 23.7073 14.7071L18.4144 20L23.7073 25.2929C24.0978 25.6834 24.0978 26.3166 23.7073 26.7071C23.3168 27.0976 22.6836 27.0976 22.2931 26.7071L16.2931 20.7071C15.9026 20.3166 15.9026 19.6834 16.2931 19.2929L22.2931 13.2929C22.6836 12.9024 23.3168 12.9024 23.7073 13.2929Z" fill="#DADADB"/>
<path fill-rule="evenodd" clip-rule="evenodd" d="M64.2931 13.2929C63.9026 13.6834 63.9026 14.3166 64.2931 14.7071L69.586 20L64.2931 25.2929C63.9026 25.6834 63.9026 26.3166 64.2931 26.7071C64.6836 27.0976 65.3168 27.0976 65.7073 26.7071L71.7073 20.7071C72.0978 20.3166 72.0978 19.6834 71.7073 19.2929L65.7073 13.2929C65.3168 12.9024 64.6836 12.9024 64.2931 13.2929Z" fill="#DADADB"/>
</g>
<defs>
<clipPath id="clip0_1_83">
<rect width="88" height="40" fill="white"/>
</clipPath>
</defs>
</svg>
